<svg xmlns="http://www.w3.org/2000/svg" xmlns:xlink="http://www.w3.org/1999/xlink" width="961.737" height="563.774" version="1.1" viewBox="0 0 721.303 422.831"><metadata><rdf:RDF xmlns:cc="http://creativecommons.org/ns#" xmlns:dc="http://purl.org/dc/elements/1.1/" xmlns:rdf="http://www.w3.org/1999/02/22-rdf-syntax-ns#"><cc:Work><dc:type rdf:resource="http://purl.org/dc/dcmitype/StillImage"/><dc:date>2023-03-08T12:36:11.994953</dc:date><dc:format>image/svg+xml</dc:format><dc:creator><cc:Agent><dc:title>Matplotlib v3.5.2, https://matplotlib.org/</dc:title></cc:Agent></dc:creator></cc:Work></rdf:RDF></metadata><defs><style type="text/css">*{stroke-linejoin:round;stroke-linecap:butt}</style></defs><g id="figure_1"><g id="patch_1"><path d="M 0 422.830843 L 721.303125 422.830843 L 721.303125 0 L 0 0 z" style="fill:#fff"/></g><g id="axes_1"><g id="patch_2"><path d="M 37.303125 368.236875 L 706.903125 368.236875 L 706.903125 35.596875 L 37.303125 35.596875 z" style="fill:#fff"/></g><g id="patch_3"><path d="M 48.463125 368.236875 L 137.743125 368.236875 L 137.743125 95.672412 L 48.463125 95.672412 z" clip-path="url(#p976d73f769)" style="fill:#4ee4e6"/></g><g id="patch_4"><path d="M 160.063125 368.236875 L 249.343125 368.236875 L 249.343125 121.892124 L 160.063125 121.892124 z" clip-path="url(#p976d73f769)" style="fill:#e64e6a"/></g><g id="patch_5"><path d="M 271.663125 368.236875 L 360.943125 368.236875 L 360.943125 95.698996 L 271.663125 95.698996 z" clip-path="url(#p976d73f769)" style="fill:#8aad1b"/></g><g id="patch_6"><path d="M 383.263125 368.236875 L 472.543125 368.236875 L 472.543125 121.928342 L 383.263125 121.928342 z" clip-path="url(#p976d73f769)" style="fill:#ad1b5d"/></g><g id="patch_7"><path d="M 494.863125 368.236875 L 584.143125 368.236875 L 584.143125 51.436875 L 494.863125 51.436875 z" clip-path="url(#p976d73f769)" style="fill:#39a366"/></g><g id="patch_8"><path d="M 606.463125 368.236875 L 695.743125 368.236875 L 695.743125 51.436875 L 606.463125 51.436875 z" clip-path="url(#p976d73f769)" style="fill:#4ee6aa"/></g><g id="matplotlib.axis_1"><g id="xtick_1"><g id="line2d_1"><defs><path id="m51c7ef1825" d="M 0 0 L 0 3.5" style="stroke:#000;stroke-width:.8"/></defs><g><use x="93.103" y="368.237" xlink:href="#m51c7ef1825" style="stroke:#000;stroke-width:.8"/></g></g><g id="text_1"><g transform="translate(67.089803 399.988528)rotate(-15)scale(0.14 -0.14)"><defs><path id="DejaVuSans-57" d="M 213 4666 L 850 4666 L 1831 722 L 2809 4666 L 3519 4666 L 4500 722 L 5478 4666 L 6119 4666 L 4947 0 L 4153 0 L 3169 4050 L 2175 0 L 1381 0 L 213 4666 z" transform="scale(0.015625)"/><path id="DejaVuSans-54" d="M -19 4666 L 3928 4666 L 3928 4134 L 2272 4134 L 2272 0 L 1638 0 L 1638 4134 L -19 4134 L -19 4666 z" transform="scale(0.015625)"/><path id="DejaVuSans-20" transform="scale(0.015625)"/><path id="DejaVuSans-64" d="M 2906 2969 L 2906 4863 L 3481 4863 L 3481 0 L 2906 0 L 2906 525 Q 2725 213 2448 61 Q 2172 -91 1784 -91 Q 1150 -91 751 415 Q 353 922 353 1747 Q 353 2572 751 3078 Q 1150 3584 1784 3584 Q 2172 3584 2448 3432 Q 2725 3281 2906 2969 z M 947 1747 Q 947 1113 1208 752 Q 1469 391 1925 391 Q 2381 391 2643 752 Q 2906 1113 2906 1747 Q 2906 2381 2643 2742 Q 2381 3103 1925 3103 Q 1469 3103 1208 2742 Q 947 2381 947 1747 z" transform="scale(0.015625)"/><path id="DejaVuSans-69" d="M 603 3500 L 1178 3500 L 1178 0 L 603 0 L 603 3500 z M 603 4863 L 1178 4863 L 1178 4134 L 603 4134 L 603 4863 z" transform="scale(0.015625)"/><path id="DejaVuSans-63" d="M 3122 3366 L 3122 2828 Q 2878 2963 2633 3030 Q 2388 3097 2138 3097 Q 1578 3097 1268 2742 Q 959 2388 959 1747 Q 959 1106 1268 751 Q 1578 397 2138 397 Q 2388 397 2633 464 Q 2878 531 3122 666 L 3122 134 Q 2881 22 2623 -34 Q 2366 -91 2075 -91 Q 1284 -91 818 406 Q 353 903 353 1747 Q 353 2603 823 3093 Q 1294 3584 2113 3584 Q 2378 3584 2631 3529 Q 2884 3475 3122 3366 z" transform="scale(0.015625)"/><path id="DejaVuSans-65" d="M 3597 1894 L 3597 1613 L 953 1613 Q 991 1019 1311 708 Q 1631 397 2203 397 Q 2534 397 2845 478 Q 3156 559 3463 722 L 3463 178 Q 3153 47 2828 -22 Q 2503 -91 2169 -91 Q 1331 -91 842 396 Q 353 884 353 1716 Q 353 2575 817 3079 Q 1281 3584 2069 3584 Q 2775 3584 3186 3129 Q 3597 2675 3597 1894 z M 3022 2063 Q 3016 2534 2758 2815 Q 2500 3097 2075 3097 Q 1594 3097 1305 2825 Q 1016 2553 972 2059 L 3022 2063 z" transform="scale(0.015625)"/></defs><use xlink:href="#DejaVuSans-57"/><use x="98.877" xlink:href="#DejaVuSans-54"/><use x="159.961" xlink:href="#DejaVuSans-20"/><use x="191.748" xlink:href="#DejaVuSans-64"/><use x="255.225" xlink:href="#DejaVuSans-69"/><use x="283.008" xlink:href="#DejaVuSans-63"/><use x="337.988" xlink:href="#DejaVuSans-65"/></g></g></g><g id="xtick_2"><g id="line2d_2"><g><use x="204.703" y="368.237" xlink:href="#m51c7ef1825" style="stroke:#000;stroke-width:.8"/></g></g><g id="text_2"><g transform="translate(168.184152 405.618489)rotate(-15)scale(0.14 -0.14)"><defs><path id="DejaVuSans-6a" d="M 603 3500 L 1178 3500 L 1178 -63 Q 1178 -731 923 -1031 Q 669 -1331 103 -1331 L -116 -1331 L -116 -844 L 38 -844 Q 366 -844 484 -692 Q 603 -541 603 -63 L 603 3500 z M 603 4863 L 1178 4863 L 1178 4134 L 603 4134 L 603 4863 z" transform="scale(0.015625)"/><path id="DejaVuSans-61" d="M 2194 1759 Q 1497 1759 1228 1600 Q 959 1441 959 1056 Q 959 750 1161 570 Q 1363 391 1709 391 Q 2188 391 2477 730 Q 2766 1069 2766 1631 L 2766 1759 L 2194 1759 z M 3341 1997 L 3341 0 L 2766 0 L 2766 531 Q 2569 213 2275 61 Q 1981 -91 1556 -91 Q 1019 -91 701 211 Q 384 513 384 1019 Q 384 1609 779 1909 Q 1175 2209 1959 2209 L 2766 2209 L 2766 2266 Q 2766 2663 2505 2880 Q 2244 3097 1772 3097 Q 1472 3097 1187 3025 Q 903 2953 641 2809 L 641 3341 Q 956 3463 1253 3523 Q 1550 3584 1831 3584 Q 2591 3584 2966 3190 Q 3341 2797 3341 1997 z" transform="scale(0.015625)"/><path id="DejaVuSans-72" d="M 2631 2963 Q 2534 3019 2420 3045 Q 2306 3072 2169 3072 Q 1681 3072 1420 2755 Q 1159 2438 1159 1844 L 1159 0 L 581 0 L 581 3500 L 1159 3500 L 1159 2956 Q 1341 3275 1631 3429 Q 1922 3584 2338 3584 Q 2397 3584 2469 3576 Q 2541 3569 2628 3553 L 2631 2963 z" transform="scale(0.015625)"/></defs><use xlink:href="#DejaVuSans-57"/><use x="98.877" xlink:href="#DejaVuSans-54"/><use x="159.961" xlink:href="#DejaVuSans-20"/><use x="191.748" xlink:href="#DejaVuSans-6a"/><use x="219.531" xlink:href="#DejaVuSans-61"/><use x="280.811" xlink:href="#DejaVuSans-63"/><use x="335.791" xlink:href="#DejaVuSans-63"/><use x="390.771" xlink:href="#DejaVuSans-61"/><use x="452.051" xlink:href="#DejaVuSans-72"/><use x="491.414" xlink:href="#DejaVuSans-64"/></g></g></g><g id="xtick_3"><g id="line2d_3"><g><use x="316.303" y="368.237" xlink:href="#m51c7ef1825" style="stroke:#000;stroke-width:.8"/></g></g><g id="text_3"><g transform="translate(292.651039 398.723146)rotate(-15)scale(0.14 -0.14)"><defs><path id="DejaVuSans-43" d="M 4122 4306 L 4122 3641 Q 3803 3938 3442 4084 Q 3081 4231 2675 4231 Q 1875 4231 1450 3742 Q 1025 3253 1025 2328 Q 1025 1406 1450 917 Q 1875 428 2675 428 Q 3081 428 3442 575 Q 3803 722 4122 1019 L 4122 359 Q 3791 134 3420 21 Q 3050 -91 2638 -91 Q 1578 -91 968 557 Q 359 1206 359 2328 Q 359 3453 968 4101 Q 1578 4750 2638 4750 Q 3056 4750 3426 4639 Q 3797 4528 4122 4306 z" transform="scale(0.015625)"/></defs><use xlink:href="#DejaVuSans-54"/><use x="55.209" xlink:href="#DejaVuSans-43"/><use x="125.033" xlink:href="#DejaVuSans-20"/><use x="156.82" xlink:href="#DejaVuSans-64"/><use x="220.297" xlink:href="#DejaVuSans-69"/><use x="248.08" xlink:href="#DejaVuSans-63"/><use x="303.061" xlink:href="#DejaVuSans-65"/></g></g></g><g id="xtick_4"><g id="line2d_4"><g><use x="427.903" y="368.237" xlink:href="#m51c7ef1825" style="stroke:#000;stroke-width:.8"/></g></g><g id="text_4"><g transform="translate(393.745388 404.353107)rotate(-15)scale(0.14 -0.14)"><use xlink:href="#DejaVuSans-54"/><use x="55.209" xlink:href="#DejaVuSans-43"/><use x="125.033" xlink:href="#DejaVuSans-20"/><use x="156.82" xlink:href="#DejaVuSans-6a"/><use x="184.604" xlink:href="#DejaVuSans-61"/><use x="245.883" xlink:href="#DejaVuSans-63"/><use x="300.863" xlink:href="#DejaVuSans-63"/><use x="355.844" xlink:href="#DejaVuSans-61"/><use x="417.123" xlink:href="#DejaVuSans-72"/><use x="456.486" xlink:href="#DejaVuSans-64"/></g></g></g><g id="xtick_5"><g id="line2d_5"><g><use x="539.503" y="368.237" xlink:href="#m51c7ef1825" style="stroke:#000;stroke-width:.8"/></g></g><g id="text_5"><g transform="translate(515.902807 398.695404)rotate(-15)scale(0.14 -0.14)"><defs><path id="DejaVuSans-45" d="M 628 4666 L 3578 4666 L 3578 4134 L 1259 4134 L 1259 2753 L 3481 2753 L 3481 2222 L 1259 2222 L 1259 531 L 3634 531 L 3634 0 L 628 0 L 628 4666 z" transform="scale(0.015625)"/></defs><use xlink:href="#DejaVuSans-45"/><use x="63.184" xlink:href="#DejaVuSans-54"/><use x="124.268" xlink:href="#DejaVuSans-20"/><use x="156.055" xlink:href="#DejaVuSans-64"/><use x="219.531" xlink:href="#DejaVuSans-69"/><use x="247.314" xlink:href="#DejaVuSans-63"/><use x="302.295" xlink:href="#DejaVuSans-65"/></g></g></g><g id="xtick_6"><g id="line2d_6"><g><use x="651.103" y="368.237" xlink:href="#m51c7ef1825" style="stroke:#000;stroke-width:.8"/></g></g><g id="text_6"><g transform="translate(616.997156 404.325365)rotate(-15)scale(0.14 -0.14)"><use xlink:href="#DejaVuSans-45"/><use x="63.184" xlink:href="#DejaVuSans-54"/><use x="124.268" xlink:href="#DejaVuSans-20"/><use x="156.055" xlink:href="#DejaVuSans-6a"/><use x="183.838" xlink:href="#DejaVuSans-61"/><use x="245.117" xlink:href="#DejaVuSans-63"/><use x="300.098" xlink:href="#DejaVuSans-63"/><use x="355.078" xlink:href="#DejaVuSans-61"/><use x="416.357" xlink:href="#DejaVuSans-72"/><use x="455.721" xlink:href="#DejaVuSans-64"/></g></g></g></g><g id="matplotlib.axis_2"><g id="ytick_1"><g id="line2d_7"><defs><path id="m7ac8e2bb60" d="M 0 0 L -3.5 0" style="stroke:#000;stroke-width:.8"/></defs><g><use x="37.303" y="368.237" xlink:href="#m7ac8e2bb60" style="stroke:#000;stroke-width:.8"/></g></g><g id="text_7"><g transform="translate(14.4 372.036094)scale(0.1 -0.1)"><defs><path id="DejaVuSans-30" d="M 2034 4250 Q 1547 4250 1301 3770 Q 1056 3291 1056 2328 Q 1056 1369 1301 889 Q 1547 409 2034 409 Q 2525 409 2770 889 Q 3016 1369 3016 2328 Q 3016 3291 2770 3770 Q 2525 4250 2034 4250 z M 2034 4750 Q 2819 4750 3233 4129 Q 3647 3509 3647 2328 Q 3647 1150 3233 529 Q 2819 -91 2034 -91 Q 1250 -91 836 529 Q 422 1150 422 2328 Q 422 3509 836 4129 Q 1250 4750 2034 4750 z" transform="scale(0.015625)"/><path id="DejaVuSans-2e" d="M 684 794 L 1344 794 L 1344 0 L 684 0 L 684 794 z" transform="scale(0.015625)"/></defs><use xlink:href="#DejaVuSans-30"/><use x="63.623" xlink:href="#DejaVuSans-2e"/><use x="95.41" xlink:href="#DejaVuSans-30"/></g></g></g><g id="ytick_2"><g id="line2d_8"><g><use x="37.303" y="304.877" xlink:href="#m7ac8e2bb60" style="stroke:#000;stroke-width:.8"/></g></g><g id="text_8"><g transform="translate(14.4 308.676094)scale(0.1 -0.1)"><defs><path id="DejaVuSans-32" d="M 1228 531 L 3431 531 L 3431 0 L 469 0 L 469 531 Q 828 903 1448 1529 Q 2069 2156 2228 2338 Q 2531 2678 2651 2914 Q 2772 3150 2772 3378 Q 2772 3750 2511 3984 Q 2250 4219 1831 4219 Q 1534 4219 1204 4116 Q 875 4013 500 3803 L 500 4441 Q 881 4594 1212 4672 Q 1544 4750 1819 4750 Q 2544 4750 2975 4387 Q 3406 4025 3406 3419 Q 3406 3131 3298 2873 Q 3191 2616 2906 2266 Q 2828 2175 2409 1742 Q 1991 1309 1228 531 z" transform="scale(0.015625)"/></defs><use xlink:href="#DejaVuSans-30"/><use x="63.623" xlink:href="#DejaVuSans-2e"/><use x="95.41" xlink:href="#DejaVuSans-32"/></g></g></g><g id="ytick_3"><g id="line2d_9"><g><use x="37.303" y="241.517" xlink:href="#m7ac8e2bb60" style="stroke:#000;stroke-width:.8"/></g></g><g id="text_9"><g transform="translate(14.4 245.316094)scale(0.1 -0.1)"><defs><path id="DejaVuSans-34" d="M 2419 4116 L 825 1625 L 2419 1625 L 2419 4116 z M 2253 4666 L 3047 4666 L 3047 1625 L 3713 1625 L 3713 1100 L 3047 1100 L 3047 0 L 2419 0 L 2419 1100 L 313 1100 L 313 1709 L 2253 4666 z" transform="scale(0.015625)"/></defs><use xlink:href="#DejaVuSans-30"/><use x="63.623" xlink:href="#DejaVuSans-2e"/><use x="95.41" xlink:href="#DejaVuSans-34"/></g></g></g><g id="ytick_4"><g id="line2d_10"><g><use x="37.303" y="178.157" xlink:href="#m7ac8e2bb60" style="stroke:#000;stroke-width:.8"/></g></g><g id="text_10"><g transform="translate(14.4 181.956094)scale(0.1 -0.1)"><defs><path id="DejaVuSans-36" d="M 2113 2584 Q 1688 2584 1439 2293 Q 1191 2003 1191 1497 Q 1191 994 1439 701 Q 1688 409 2113 409 Q 2538 409 2786 701 Q 3034 994 3034 1497 Q 3034 2003 2786 2293 Q 2538 2584 2113 2584 z M 3366 4563 L 3366 3988 Q 3128 4100 2886 4159 Q 2644 4219 2406 4219 Q 1781 4219 1451 3797 Q 1122 3375 1075 2522 Q 1259 2794 1537 2939 Q 1816 3084 2150 3084 Q 2853 3084 3261 2657 Q 3669 2231 3669 1497 Q 3669 778 3244 343 Q 2819 -91 2113 -91 Q 1303 -91 875 529 Q 447 1150 447 2328 Q 447 3434 972 4092 Q 1497 4750 2381 4750 Q 2619 4750 2861 4703 Q 3103 4656 3366 4563 z" transform="scale(0.015625)"/></defs><use xlink:href="#DejaVuSans-30"/><use x="63.623" xlink:href="#DejaVuSans-2e"/><use x="95.41" xlink:href="#DejaVuSans-36"/></g></g></g><g id="ytick_5"><g id="line2d_11"><g><use x="37.303" y="114.797" xlink:href="#m7ac8e2bb60" style="stroke:#000;stroke-width:.8"/></g></g><g id="text_11"><g transform="translate(14.4 118.596094)scale(0.1 -0.1)"><defs><path id="DejaVuSans-38" d="M 2034 2216 Q 1584 2216 1326 1975 Q 1069 1734 1069 1313 Q 1069 891 1326 650 Q 1584 409 2034 409 Q 2484 409 2743 651 Q 3003 894 3003 1313 Q 3003 1734 2745 1975 Q 2488 2216 2034 2216 z M 1403 2484 Q 997 2584 770 2862 Q 544 3141 544 3541 Q 544 4100 942 4425 Q 1341 4750 2034 4750 Q 2731 4750 3128 4425 Q 3525 4100 3525 3541 Q 3525 3141 3298 2862 Q 3072 2584 2669 2484 Q 3125 2378 3379 2068 Q 3634 1759 3634 1313 Q 3634 634 3220 271 Q 2806 -91 2034 -91 Q 1263 -91 848 271 Q 434 634 434 1313 Q 434 1759 690 2068 Q 947 2378 1403 2484 z M 1172 3481 Q 1172 3119 1398 2916 Q 1625 2713 2034 2713 Q 2441 2713 2670 2916 Q 2900 3119 2900 3481 Q 2900 3844 2670 4047 Q 2441 4250 2034 4250 Q 1625 4250 1398 4047 Q 1172 3844 1172 3481 z" transform="scale(0.015625)"/></defs><use xlink:href="#DejaVuSans-30"/><use x="63.623" xlink:href="#DejaVuSans-2e"/><use x="95.41" xlink:href="#DejaVuSans-38"/></g></g></g><g id="ytick_6"><g id="line2d_12"><g><use x="37.303" y="51.437" xlink:href="#m7ac8e2bb60" style="stroke:#000;stroke-width:.8"/></g></g><g id="text_12"><g transform="translate(14.4 55.236094)scale(0.1 -0.1)"><defs><path id="DejaVuSans-31" d="M 794 531 L 1825 531 L 1825 4091 L 703 3866 L 703 4441 L 1819 4666 L 2450 4666 L 2450 531 L 3481 531 L 3481 0 L 794 0 L 794 531 z" transform="scale(0.015625)"/></defs><use xlink:href="#DejaVuSans-31"/><use x="63.623" xlink:href="#DejaVuSans-2e"/><use x="95.41" xlink:href="#DejaVuSans-30"/></g></g></g></g><g id="line2d_13"><path clip-path="url(#p976d73f769)" style="fill:none;stroke:#424242;stroke-width:2.7;stroke-linecap:square"/></g><g id="line2d_14"><path clip-path="url(#p976d73f769)" style="fill:none;stroke:#424242;stroke-width:2.7;stroke-linecap:square"/></g><g id="line2d_15"><path clip-path="url(#p976d73f769)" style="fill:none;stroke:#424242;stroke-width:2.7;stroke-linecap:square"/></g><g id="line2d_16"><path clip-path="url(#p976d73f769)" style="fill:none;stroke:#424242;stroke-width:2.7;stroke-linecap:square"/></g><g id="line2d_17"><path clip-path="url(#p976d73f769)" style="fill:none;stroke:#424242;stroke-width:2.7;stroke-linecap:square"/></g><g id="line2d_18"><path clip-path="url(#p976d73f769)" style="fill:none;stroke:#424242;stroke-width:2.7;stroke-linecap:square"/></g><g id="patch_9"><path d="M 37.303125 368.236875 L 37.303125 35.596875" style="fill:none;stroke:#000;stroke-width:.8;stroke-linejoin:miter;stroke-linecap:square"/></g><g id="patch_10"><path d="M 706.903125 368.236875 L 706.903125 35.596875" style="fill:none;stroke:#000;stroke-width:.8;stroke-linejoin:miter;stroke-linecap:square"/></g><g id="patch_11"><path d="M 37.303125 368.236875 L 706.903125 368.236875" style="fill:none;stroke:#000;stroke-width:.8;stroke-linejoin:miter;stroke-linecap:square"/></g><g id="patch_12"><path d="M 37.303125 35.596875 L 706.903125 35.596875" style="fill:none;stroke:#000;stroke-width:.8;stroke-linejoin:miter;stroke-linecap:square"/></g><g id="text_13"><g transform="translate(76.363125 95.672412)scale(0.15 -0.15)"><defs><path id="DejaVuSans-Bold-38" d="M 2228 2088 Q 1891 2088 1709 1903 Q 1528 1719 1528 1375 Q 1528 1031 1709 848 Q 1891 666 2228 666 Q 2563 666 2741 848 Q 2919 1031 2919 1375 Q 2919 1722 2741 1905 Q 2563 2088 2228 2088 z M 1350 2484 Q 925 2613 709 2878 Q 494 3144 494 3541 Q 494 4131 934 4440 Q 1375 4750 2228 4750 Q 3075 4750 3515 4442 Q 3956 4134 3956 3541 Q 3956 3144 3739 2878 Q 3522 2613 3097 2484 Q 3572 2353 3814 2058 Q 4056 1763 4056 1313 Q 4056 619 3595 264 Q 3134 -91 2228 -91 Q 1319 -91 855 264 Q 391 619 391 1313 Q 391 1763 633 2058 Q 875 2353 1350 2484 z M 1631 3419 Q 1631 3141 1786 2991 Q 1941 2841 2228 2841 Q 2509 2841 2662 2991 Q 2816 3141 2816 3419 Q 2816 3697 2662 3845 Q 2509 3994 2228 3994 Q 1941 3994 1786 3844 Q 1631 3694 1631 3419 z" transform="scale(0.015625)"/><path id="DejaVuSans-Bold-36" d="M 2316 2303 Q 2000 2303 1842 2098 Q 1684 1894 1684 1484 Q 1684 1075 1842 870 Q 2000 666 2316 666 Q 2634 666 2792 870 Q 2950 1075 2950 1484 Q 2950 1894 2792 2098 Q 2634 2303 2316 2303 z M 3803 4544 L 3803 3681 Q 3506 3822 3243 3889 Q 2981 3956 2731 3956 Q 2194 3956 1894 3657 Q 1594 3359 1544 2772 Q 1750 2925 1990 3001 Q 2231 3078 2516 3078 Q 3231 3078 3670 2659 Q 4109 2241 4109 1563 Q 4109 813 3618 361 Q 3128 -91 2303 -91 Q 1394 -91 895 523 Q 397 1138 397 2266 Q 397 3422 980 4083 Q 1563 4744 2578 4744 Q 2900 4744 3203 4694 Q 3506 4644 3803 4544 z" transform="scale(0.015625)"/><path id="DejaVuSans-Bold-2e" d="M 653 1209 L 1778 1209 L 1778 0 L 653 0 L 653 1209 z" transform="scale(0.015625)"/><path id="DejaVuSans-Bold-30" d="M 2944 2338 Q 2944 3213 2780 3570 Q 2616 3928 2228 3928 Q 1841 3928 1675 3570 Q 1509 3213 1509 2338 Q 1509 1453 1675 1090 Q 1841 728 2228 728 Q 2613 728 2778 1090 Q 2944 1453 2944 2338 z M 4147 2328 Q 4147 1169 3647 539 Q 3147 -91 2228 -91 Q 1306 -91 806 539 Q 306 1169 306 2328 Q 306 3491 806 4120 Q 1306 4750 2228 4750 Q 3147 4750 3647 4120 Q 4147 3491 4147 2328 z" transform="scale(0.015625)"/><path id="DejaVuSans-Bold-25" d="M 4959 1925 Q 4738 1925 4616 1733 Q 4494 1541 4494 1184 Q 4494 825 4614 633 Q 4734 441 4959 441 Q 5184 441 5303 633 Q 5422 825 5422 1184 Q 5422 1541 5301 1733 Q 5181 1925 4959 1925 z M 4959 2450 Q 5541 2450 5875 2112 Q 6209 1775 6209 1184 Q 6209 594 5875 251 Q 5541 -91 4959 -91 Q 4378 -91 4042 251 Q 3706 594 3706 1184 Q 3706 1772 4042 2111 Q 4378 2450 4959 2450 z M 2094 -91 L 1403 -91 L 4319 4750 L 5013 4750 L 2094 -91 z M 1453 4750 Q 2034 4750 2367 4411 Q 2700 4072 2700 3481 Q 2700 2891 2367 2550 Q 2034 2209 1453 2209 Q 872 2209 539 2550 Q 206 2891 206 3481 Q 206 4072 539 4411 Q 872 4750 1453 4750 z M 1453 4225 Q 1228 4225 1106 4031 Q 984 3838 984 3481 Q 984 3122 1106 2926 Q 1228 2731 1453 2731 Q 1678 2731 1798 2926 Q 1919 3122 1919 3481 Q 1919 3838 1797 4031 Q 1675 4225 1453 4225 z" transform="scale(0.015625)"/></defs><use xlink:href="#DejaVuSans-Bold-38"/><use x="69.58" xlink:href="#DejaVuSans-Bold-36"/><use x="139.16" xlink:href="#DejaVuSans-Bold-2e"/><use x="177.148" xlink:href="#DejaVuSans-Bold-30"/><use x="246.729" xlink:href="#DejaVuSans-Bold-25"/></g></g><g id="text_14"><g transform="translate(187.963125 121.892124)scale(0.15 -0.15)"><defs><path id="DejaVuSans-Bold-37" d="M 428 4666 L 3944 4666 L 3944 3988 L 2125 0 L 953 0 L 2675 3781 L 428 3781 L 428 4666 z" transform="scale(0.015625)"/></defs><use xlink:href="#DejaVuSans-Bold-37"/><use x="69.58" xlink:href="#DejaVuSans-Bold-37"/><use x="139.16" xlink:href="#DejaVuSans-Bold-2e"/><use x="177.148" xlink:href="#DejaVuSans-Bold-38"/><use x="246.729" xlink:href="#DejaVuSans-Bold-25"/></g></g><g id="text_15"><g transform="translate(299.563125 95.698996)scale(0.15 -0.15)"><use xlink:href="#DejaVuSans-Bold-38"/><use x="69.58" xlink:href="#DejaVuSans-Bold-36"/><use x="139.16" xlink:href="#DejaVuSans-Bold-2e"/><use x="177.148" xlink:href="#DejaVuSans-Bold-30"/><use x="246.729" xlink:href="#DejaVuSans-Bold-25"/></g></g><g id="text_16"><g transform="translate(411.163125 121.928342)scale(0.15 -0.15)"><use xlink:href="#DejaVuSans-Bold-37"/><use x="69.58" xlink:href="#DejaVuSans-Bold-37"/><use x="139.16" xlink:href="#DejaVuSans-Bold-2e"/><use x="177.148" xlink:href="#DejaVuSans-Bold-37"/><use x="246.729" xlink:href="#DejaVuSans-Bold-25"/></g></g><g id="text_17"><g transform="translate(522.763125 51.436875)scale(0.15 -0.15)"><defs><path id="DejaVuSans-Bold-31" d="M 750 831 L 1813 831 L 1813 3847 L 722 3622 L 722 4441 L 1806 4666 L 2950 4666 L 2950 831 L 4013 831 L 4013 0 L 750 0 L 750 831 z" transform="scale(0.015625)"/></defs><use xlink:href="#DejaVuSans-Bold-31"/><use x="69.58" xlink:href="#DejaVuSans-Bold-30"/><use x="139.16" xlink:href="#DejaVuSans-Bold-30"/><use x="208.74" xlink:href="#DejaVuSans-Bold-2e"/><use x="246.729" xlink:href="#DejaVuSans-Bold-30"/><use x="316.309" xlink:href="#DejaVuSans-Bold-25"/></g></g><g id="text_18"><g transform="translate(634.363125 51.436875)scale(0.15 -0.15)"><use xlink:href="#DejaVuSans-Bold-31"/><use x="69.58" xlink:href="#DejaVuSans-Bold-30"/><use x="139.16" xlink:href="#DejaVuSans-Bold-30"/><use x="208.74" xlink:href="#DejaVuSans-Bold-2e"/><use x="246.729" xlink:href="#DejaVuSans-Bold-30"/><use x="316.309" xlink:href="#DejaVuSans-Bold-25"/></g></g><g id="text_19"><g transform="translate(157.254687 29.596875)scale(0.2 -0.2)"><defs><path id="DejaVuSans-44" d="M 1259 4147 L 1259 519 L 2022 519 Q 2988 519 3436 956 Q 3884 1394 3884 2338 Q 3884 3275 3436 3711 Q 2988 4147 2022 4147 L 1259 4147 z M 628 4666 L 1925 4666 Q 3281 4666 3915 4102 Q 4550 3538 4550 2338 Q 4550 1131 3912 565 Q 3275 0 1925 0 L 628 0 L 628 4666 z" transform="scale(0.015625)"/><path id="DejaVuSans-6e" d="M 3513 2113 L 3513 0 L 2938 0 L 2938 2094 Q 2938 2591 2744 2837 Q 2550 3084 2163 3084 Q 1697 3084 1428 2787 Q 1159 2491 1159 1978 L 1159 0 L 581 0 L 581 3500 L 1159 3500 L 1159 2956 Q 1366 3272 1645 3428 Q 1925 3584 2291 3584 Q 2894 3584 3203 3211 Q 3513 2838 3513 2113 z" transform="scale(0.015625)"/><path id="DejaVuSans-4a" d="M 628 4666 L 1259 4666 L 1259 325 Q 1259 -519 939 -900 Q 619 -1281 -91 -1281 L -331 -1281 L -331 -750 L -134 -750 Q 284 -750 456 -515 Q 628 -281 628 325 L 628 4666 z" transform="scale(0.015625)"/><path id="DejaVuSans-6f" d="M 1959 3097 Q 1497 3097 1228 2736 Q 959 2375 959 1747 Q 959 1119 1226 758 Q 1494 397 1959 397 Q 2419 397 2687 759 Q 2956 1122 2956 1747 Q 2956 2369 2687 2733 Q 2419 3097 1959 3097 z M 1959 3584 Q 2709 3584 3137 3096 Q 3566 2609 3566 1747 Q 3566 888 3137 398 Q 2709 -91 1959 -91 Q 1206 -91 779 398 Q 353 888 353 1747 Q 353 2609 779 3096 Q 1206 3584 1959 3584 z" transform="scale(0.015625)"/><path id="DejaVuSans-66" d="M 2375 4863 L 2375 4384 L 1825 4384 Q 1516 4384 1395 4259 Q 1275 4134 1275 3809 L 1275 3500 L 2222 3500 L 2222 3053 L 1275 3053 L 1275 0 L 697 0 L 697 3053 L 147 3053 L 147 3500 L 697 3500 L 697 3744 Q 697 4328 969 4595 Q 1241 4863 1831 4863 L 2375 4863 z" transform="scale(0.015625)"/><path id="DejaVuSans-74" d="M 1172 4494 L 1172 3500 L 2356 3500 L 2356 3053 L 1172 3053 L 1172 1153 Q 1172 725 1289 603 Q 1406 481 1766 481 L 2356 481 L 2356 0 L 1766 0 Q 1100 0 847 248 Q 594 497 594 1153 L 594 3053 L 172 3053 L 172 3500 L 594 3500 L 594 4494 L 1172 4494 z" transform="scale(0.015625)"/><path id="DejaVuSans-73" d="M 2834 3397 L 2834 2853 Q 2591 2978 2328 3040 Q 2066 3103 1784 3103 Q 1356 3103 1142 2972 Q 928 2841 928 2578 Q 928 2378 1081 2264 Q 1234 2150 1697 2047 L 1894 2003 Q 2506 1872 2764 1633 Q 3022 1394 3022 966 Q 3022 478 2636 193 Q 2250 -91 1575 -91 Q 1294 -91 989 -36 Q 684 19 347 128 L 347 722 Q 666 556 975 473 Q 1284 391 1588 391 Q 1994 391 2212 530 Q 2431 669 2431 922 Q 2431 1156 2273 1281 Q 2116 1406 1581 1522 L 1381 1569 Q 847 1681 609 1914 Q 372 2147 372 2553 Q 372 3047 722 3315 Q 1072 3584 1716 3584 Q 2034 3584 2315 3537 Q 2597 3491 2834 3397 z" transform="scale(0.015625)"/><path id="DejaVuSans-6d" d="M 3328 2828 Q 3544 3216 3844 3400 Q 4144 3584 4550 3584 Q 5097 3584 5394 3201 Q 5691 2819 5691 2113 L 5691 0 L 5113 0 L 5113 2094 Q 5113 2597 4934 2840 Q 4756 3084 4391 3084 Q 3944 3084 3684 2787 Q 3425 2491 3425 1978 L 3425 0 L 2847 0 L 2847 2094 Q 2847 2600 2669 2842 Q 2491 3084 2119 3084 Q 1678 3084 1418 2786 Q 1159 2488 1159 1978 L 1159 0 L 581 0 L 581 3500 L 1159 3500 L 1159 2956 Q 1356 3278 1631 3431 Q 1906 3584 2284 3584 Q 2666 3584 2933 3390 Q 3200 3197 3328 2828 z" transform="scale(0.015625)"/><path id="DejaVuSans-53" d="M 3425 4513 L 3425 3897 Q 3066 4069 2747 4153 Q 2428 4238 2131 4238 Q 1616 4238 1336 4038 Q 1056 3838 1056 3469 Q 1056 3159 1242 3001 Q 1428 2844 1947 2747 L 2328 2669 Q 3034 2534 3370 2195 Q 3706 1856 3706 1288 Q 3706 609 3251 259 Q 2797 -91 1919 -91 Q 1588 -91 1214 -16 Q 841 59 441 206 L 441 856 Q 825 641 1194 531 Q 1563 422 1919 422 Q 2459 422 2753 634 Q 3047 847 3047 1241 Q 3047 1584 2836 1778 Q 2625 1972 2144 2069 L 1759 2144 Q 1053 2284 737 2584 Q 422 2884 422 3419 Q 422 4038 858 4394 Q 1294 4750 2059 4750 Q 2388 4750 2728 4690 Q 3069 4631 3425 4513 z" transform="scale(0.015625)"/></defs><use xlink:href="#DejaVuSans-44"/><use x="77.002" xlink:href="#DejaVuSans-69"/><use x="104.785" xlink:href="#DejaVuSans-63"/><use x="159.766" xlink:href="#DejaVuSans-65"/><use x="221.289" xlink:href="#DejaVuSans-20"/><use x="253.076" xlink:href="#DejaVuSans-61"/><use x="314.355" xlink:href="#DejaVuSans-6e"/><use x="377.734" xlink:href="#DejaVuSans-64"/><use x="441.211" xlink:href="#DejaVuSans-20"/><use x="472.998" xlink:href="#DejaVuSans-4a"/><use x="502.49" xlink:href="#DejaVuSans-61"/><use x="563.77" xlink:href="#DejaVuSans-63"/><use x="618.75" xlink:href="#DejaVuSans-63"/><use x="673.73" xlink:href="#DejaVuSans-61"/><use x="735.01" xlink:href="#DejaVuSans-72"/><use x="774.373" xlink:href="#DejaVuSans-64"/><use x="837.85" xlink:href="#DejaVuSans-20"/><use x="869.637" xlink:href="#DejaVuSans-43"/><use x="939.461" xlink:href="#DejaVuSans-6f"/><use x="1000.643" xlink:href="#DejaVuSans-65"/><use x="1062.166" xlink:href="#DejaVuSans-66"/><use x="1097.371" xlink:href="#DejaVuSans-66"/><use x="1132.576" xlink:href="#DejaVuSans-69"/><use x="1160.359" xlink:href="#DejaVuSans-63"/><use x="1215.34" xlink:href="#DejaVuSans-69"/><use x="1243.123" xlink:href="#DejaVuSans-65"/><use x="1304.646" xlink:href="#DejaVuSans-6e"/><use x="1368.025" xlink:href="#DejaVuSans-74"/><use x="1407.234" xlink:href="#DejaVuSans-73"/><use x="1459.334" xlink:href="#DejaVuSans-20"/><use x="1491.121" xlink:href="#DejaVuSans-66"/><use x="1526.326" xlink:href="#DejaVuSans-72"/><use x="1565.189" xlink:href="#DejaVuSans-6f"/><use x="1626.371" xlink:href="#DejaVuSans-6d"/><use x="1723.783" xlink:href="#DejaVuSans-20"/><use x="1755.57" xlink:href="#DejaVuSans-54"/><use x="1799.654" xlink:href="#DejaVuSans-65"/><use x="1861.178" xlink:href="#DejaVuSans-73"/><use x="1913.277" xlink:href="#DejaVuSans-74"/><use x="1952.486" xlink:href="#DejaVuSans-20"/><use x="1984.273" xlink:href="#DejaVuSans-53"/><use x="2047.75" xlink:href="#DejaVuSans-65"/><use x="2109.273" xlink:href="#DejaVuSans-74"/></g></g></g></g><defs><clipPath id="p976d73f769"><rect width="669.6" height="332.64" x="37.303" y="35.597"/></clipPath></defs></svg>